<?xml version="1.0" encoding="UTF-8"?>
<svg id="Calque_2" data-name="Calque 2" xmlns="http://www.w3.org/2000/svg" viewBox="0 0 124.6334823334 52.1373126192">
  <defs>
    <style>
      .cls-1 {
        fill: #fff;
      }
    </style>
  </defs>
  <g id="Calque_1-2" data-name="Calque 1">
    <g>
      <g>
        <polygon class="cls-1" points="61.9993953319 12.216927471 61.9993953319 14.770286848 55.4245878531 14.770286848 55.4245878531 18.8147783678 60.4629196893 18.8147783678 60.4629196893 21.3220509089 55.4245878531 21.3220509089 55.4245878531 27.9875453874 52.2616929043 27.9875453874 52.2616929043 12.216927471 61.9993953319 12.216927471"/>
        <rect class="cls-1" x="64.236093546" y="11.2684306544" width="3.1628949488" height="16.719114733"/>
        <g>
          <path class="cls-1" d="M82.1523909938,21.4570611694c0-1.2201303182-.2607621381-2.3005280584-.7823432623-3.2412500687-.5123148874-.9407220103-1.2480995731-1.667183611-2.1888215833-2.1794984984-.9407220103-.5122580393-2.0024735806-.7730201774-3.194691492-.7730201774-1.2387764881,0-2.3284973133.270085223-3.2785424085.7916663473-.9499882471.5309042092-1.6858297809,1.2853350648-2.2167339901,2.2632925667-.5215811243.977957502-.7916663473,2.1142937518-.7916663473,3.4089519015,0,1.2853350648.270085223,2.4122913816.8103125172,3.3902488836.5309042092.97801435,1.2760119798,1.7324452056,2.23538016,2.2726156517.9499882471.5309042092,2.0304428354.8010462803,3.2412500687.8010462803,1.4902155413,0,2.7476381993-.3912284792,3.7721542779-1.1642486566,1.0245729267-.7730770255,1.7137990357-1.7696806973,2.0770582601-2.9711648456h-3.4089519015c-.5029349544,1.0058699087-1.3318936414,1.5181847961-2.505465383,1.5181847961-.8196356021,0-1.4995386262-.2608189862-2.0583552422-.7730770255-.558873464-.5122580393-.8755172637-1.2201303182-.9500450952-2.1236168368h9.1463442683c.0652047465-.3632023763.0931171533-.7637539405.0931171533-1.2201303182ZM72.9315757421,20.5536314989c.1210295601-.847604857.4470532928-1.4995386262.9872805869-1.9745611738.5308473611-.4750225476,1.1921610634-.7171953639,1.9745611738-.7171953639.828901839,0,1.527451033.2514959012,2.1049706669.7357846857.5681397009.4936687175.8661941788,1.1456593348.8754604156,1.955971852h-5.9422728432Z"/>
          <polygon class="cls-1" points="73.2059298204 12.1715839712 78.401848902 14.5443126848 78.401848902 12.2845710528 73.2059298204 9.5959245122 73.2059298204 12.1715839712"/>
        </g>
        <path class="cls-1" d="M84.4347643908,18.3286365825c.5270252688-.9715402346,1.2577246189-1.7245396666,2.1913547143-2.258998296.9343734314-.5344586294,2.0032906903-.8020596122,3.2089817847-.8020596122,1.5505990278,0,2.835083745.388021425,3.8519674794,1.1633209389,1.0168837344.77604285,1.6977795683,1.8642868465,2.0449175098,3.2647319895h-3.41191253c-.1806306633-.5418919901-.4853984492-.9678235543-.9150466938-1.2763080205s-.9603901936-.4630983674-1.5929691834-.4630983674c-.9038966528,0-1.6189859456.3270678678-2.1460112144.9826902755-.5277686049.6548790717-.7909095712,1.5855358228-.7909095712,2.7904835812,0,1.1900810372.2631409664,2.1125610916.7909095712,2.7674401632.5270252688.6548790717,1.2421145616.9826902755,2.1460112144.9826902755,1.2800247008,0,2.1162777719-.5723687686,2.5080158772-1.7171063059h3.41191253c-.3471379415,1.3558449792-1.0324937918,2.4329389348-2.0560675508,3.2312818666-1.0250604311.7983429319-2.3050851319,1.1975143978-3.8408174385,1.1975143978-1.2056910945,0-2.2746083533-.2676009827-3.2089817847-.8020596122-.9336300954-.5352019655-1.6643294455-1.2882013975-2.1913547143-2.2597416321s-.7909095712-2.1043843949-.7909095712-3.400019153.2638843024-2.4292222545.7909095712-3.400762489Z"/>
        <path class="cls-1" d="M107.638742939,15.911307705c.7381327107.4140381872,1.3142181597,1.0243170951,1.7282563469,1.8300933875s.6214289488,1.7735998467.6214289488,2.9034706628v7.3426736321h-3.1628949488v-6.9137687236c0-.9938403165-.2490175812-1.7579897894-.7455660714-2.2931917549-.4972918263-.5344586294-1.1752143159-.8020596122-2.0337674689-.8020596122-.8734198742,0-1.5624924048.2676009827-2.0672175917.8020596122-.5047251869.5352019655-.7567161123,1.2993514384-.7567161123,2.2931917549v6.9137687236h-3.1628949488V11.2684306544h3.1628949488v5.7608544896c.4066048266-.5418919901.9484968166-.9670802182,1.6264193062-1.2763080205.6779224896-.3084844662,1.4309219216-.4630983674,2.2597416321-.4630983674.9484968166,0,1.7921832483.2073907616,2.5303159591.6214289488Z"/>
        <path class="cls-1" d="M124.6334823334,21.4570611694c0-1.2201303182-.26070529-2.3005280584-.7823432623-3.2412500687s-1.2481564211-1.667183611-2.1888784314-2.1794984984c-.949931399-.5122580393-2.0117398174-.7730201774-3.2039577289-.7730201774-1.2293965551,0-2.3284973133.270085223-3.2692193235.7916663473-.9500450952.5309042092-1.6950960177,1.2853350648-2.2166202939,2.2632925667-.5309610573.977957502-.7917800434,2.1142937518-.7917800434,3.4089519015,0,1.2853350648.2701420711,2.4122913816.8011031284,3.3902488836.530733665.97801435,1.2758982837,1.7324452056,2.2352664638,2.2726156517.9593681801.5309042092,2.0397090723.8010462803,3.2412500687.8010462803,1.4903292374,0,2.7475813512-.3912284792,3.7722111259-1.1642486566,1.0245160786-.7730770255,1.7230652726-1.7696806973,2.086324497-2.9711648456h-3.4181612903c-.4936687175,1.0058699087-1.3320641857,1.5181847961-2.5055222311,1.5181847961-.8103125172,0-1.4995386262-.2608189862-2.0584689383-.7730770255-.5587029198-.5122580393-.8754604156-1.2201303182-.9500450952-2.1236168368h9.1557242013c.0559385097-.3632023763.0931171533-.7637539405.0931171533-1.2201303182ZM115.4126102337,20.5536314989c.1212001043-.847604857.4470532928-1.4995386262.97801435-1.9745611738.5402841422-.4750225476,1.2015409964-.7171953639,1.9838842587-.7171953639.8289586871,0,1.527507881.2514959012,2.0956475819.7357846857.5774627858.4936687175.8662510268,1.1456593348.8848971967,1.955971852h-5.9424433875Z"/>
        <polygon class="cls-1" points="67.6386029869 31.2463306884 61.8547050793 47.0169486048 58.0138876409 47.0169486048 52.2299897333 31.2463306884 55.6188588453 31.2463306884 59.95696811 43.7864100743 64.2720339568 31.2463306884 67.6386029869 31.2463306884"/>
        <path class="cls-1" d="M81.1747809852,40.4855343916c0-1.2201303182-.2608189862-2.3005280584-.7824001104-3.2412500687s-1.248042725-1.667183611-2.1887647352-2.1794984984c-.9407220103-.5122580393-2.0118535136-.7636970924-3.194691492-.7636970924-1.2387764881,0-2.3284973133.2607621381-3.2785424085.7823432623-.9500450952.5309042092-1.6858297809,1.2853350648-2.2167339901,2.2632925667s-.7916663473,2.1142937518-.7916663473,3.4089519015c0,1.2853350648.270085223,2.4122913816.8009894322,3.3902488836.5402272941.97801435,1.2853350648,1.7417682906,2.23538016,2.2726156517.9593113321.5309042092,2.0397090723.8010462803,3.2505731536.8010462803,1.4902155413,0,2.7475813512-.3912284792,3.7721542779-1.1642486566,1.0245160786-.7730770255,1.7137421876-1.7603576124,2.077001412-2.9711648457h-3.4088950535c-.5029918024,1.0151929937-1.3412167264,1.5181847961-2.5147884679,1.5181847961-.8103125172,0-1.4995386262-.2608189862-2.0584120902-.7730770255-.549493531-.5122580393-.8661941788-1.2201303182-.9407220103-2.1236168368h9.1463442683c.0558816616-.3632023763.0931740014-.7636970924.0931740014-1.2201303182ZM71.9539088854,39.5821047212c.1210864081-.838281772.4470532928-1.4995386262.9872805869-1.9745611738.5309042092-.4750225476,1.1922179115-.7171953639,1.9745611738-.7171953639.8289586871,0,1.527507881.2514959012,2.0956475819.7357846857.5774627858.4936687175.8661941788,1.1456593348.8848403487,1.955971852h-5.9423296913Z"/>
        <path class="cls-1" d="M88.2327286173,34.8842173816c.6556224077-.376128048,1.4041618233-.564935408,2.2478482551-.564935408v3.3212255303h-.835509735c-.9945836525,0-1.7438664042.2334075238-2.2478482551.7002225715-.505468523.4675583837-.7574594484,1.2807680369-.7574594484,2.4403722954v6.235846234h-3.1628949488v-12.5170359679h3.1628949488v1.9430804692c.4066048266-.6623124323.9380901117-1.1819043405,1.5929691834-1.5587757245Z"/>
        <path class="cls-1" d="M96.2875181979,37.0986155138v6.0544722346c0,.4222148839.1018370407.7269826698.305511122.9150466938.2029307452.18880736.5456086704.282467704,1.0280337754.282467704h1.4680887248v2.6663464586h-1.9876806329c-2.6663464586,0-3.9991480199-1.2948914221-3.9991480199-3.8861609383v-6.0321721527h-1.4911321427v-2.5987028769h1.4911321427v-3.0952513671h3.1851950307v3.0952513671h2.8016336221v2.5987028769h-2.8016336221Z"/>
        <path class="cls-1" d="M113.0100462784,40.4855343916c0-1.2201303182-.2608189862-2.3005280584-.7824569585-3.2412500687s-1.248042725-1.667183611-2.1887647352-2.1794984984c-.9407220102-.5122580393-2.0118535136-.7636970924-3.2040714251-.7636970924-1.2293965551,0-2.3191742283.2607621381-3.2692193235.7823432623-.9500450952.5309042092-1.6857729328,1.2853350648-2.2166202939,2.2632925667-.5309610573.977957502-.7917800434,2.1142937518-.7917800434,3.4089519015,0,1.2853350648.2701420711,2.4122913816.8011031284,3.3902488836.5401704461.97801435,1.2852213686,1.7417682906,2.2352664638,2.2726156517.9593681801.5309042092,2.0398227684.8010462803,3.2412500687.8010462803,1.4996523224,0,2.7570181323-.3912284792,3.7815342109-1.1642486566,1.0153066898-.7730770255,1.7138558838-1.7603576124,2.077001412-2.9711648457h-3.4181612903c-.4936687175,1.0151929937-1.3319504895,1.5181847961-2.5055222311,1.5181847961-.8103125172,0-1.4995386262-.2608189862-2.0584689383-.7730770255-.5493798348-.5122580393-.8661373307-1.2201303182-.9406083141-2.1236168368h9.1462874202c.0559385097-.3632023763.0932308495-.7636970924.0932308495-1.2201303182ZM103.7890604825,39.5821047212c.1212001043-.838281772.4471669889-1.4995386262.97801435-1.9745611738.5402841422-.4750225476,1.2015409964-.7171953639,1.9838842588-.7171953639.8289586871,0,1.527507881.2514959012,2.0956475819.7357846857.5774627858.4936687175.8662510268,1.1456593348.8848971967,1.955971852h-5.9424433875Z"/>
      </g>
      <path class="cls-1" d="M42.8690713378,32.8506077965l-5.3958031986-13.1113390399-3.7905127001,3.7715036891,4.6438113602,11.2730749503c.0189858293.0417734607.0379716585.0873487237.06075929.1329239866.5925015999,1.2305784627.2278763147,2.7194244759-.8659531775,3.5436273744l-10.8739424649,8.1772824387c-1.0862722512.8165992941-2.56751466.7672222289-3.6006080439-.1177399595L5.8718564292,31.7947267812c-.5925015999-.5089314967-.9343392536-1.249564292-.9343392536-2.031970548,0-.9457214785.5051528762-1.830683667,1.3217289886-2.3054453073l6.7150490409-3.9348189115c2.0889512175-1.22299804,3.3916943768-3.4866467049,3.4030766017-5.9060301695l.0152072088-2.9777152082c.0037786205-.5659121662.2354799191-1.0786454651.6114874291-1.4508743547.3722057079-.3684039057.8849621885-.6000820226,1.4508743547-.6000820226l15.2260595133.0073352369-1.654811514,1.5699493851c-.970856288.921068786-1.2627667699,2.3506108449-.7307382758,3.578566594l.8516113476,1.9655733891,8.1051177421-8.1089427261c.4633794155-.4595544315.7254487682-1.0900508717.7254487682-1.7433117616,0-.0007881785-.0001159086-.001576357-.0001159086-.0023645355,0-.0007881785.0001159086-.0015531753.0001159086-.0023413538,0-.6532608899-.2620693527-1.28375733-.7254487682-1.7433117616L32.1470618705,0l-.9519890444,2.2306316498c-.4940622387,1.1576507872-.2603998191,2.4976521015.5963199621,3.419760586l1.8686364581,2.011259189-15.1975080243-.0113822249h-.0113822249c-3.836087963,0-6.9732934097,3.1220214197-6.9960810412,6.9618880031l-.0152072088,2.9777152082c-.0035185289.6889612178-.3701596309,1.3249840274-.9645929849,1.6733070489l-6.494248087,3.8054663336c-1.9332306276,1.1328246119-3.3986275744,2.9910618281-3.8330550467,5.1892303913-.5449039497,2.7571707792.442727687,5.5103823739,2.5107066734,7.2855898355l17.1749891555,14.7251912732c1.4470725525,1.2419838693,3.2663508129,1.8686553255,5.0894308754,1.8686553255,1.6521844174,0,3.3081474553-.5165351011,4.6906589156-1.5534071054l10.8777210854-8.1773056205c2.9473239723-2.2180734019,3.9386207137-6.22505701,2.3776100039-9.5559920968Z"/>
    </g>
  </g>
</svg>