<?xml version="1.0" encoding="UTF-8"?>
<svg id="Calque_2" data-name="Calque 2" xmlns="http://www.w3.org/2000/svg" viewBox="0 0 190.131798075 54.7898081164">
  <g id="Calque_1-2" data-name="Calque 1">
    <g>
      <g>
        <path d="M66.8476183875,23.7133067264v2.423828125h-6.2421875v3.83984375h4.7841796875v2.3813476562h-4.7841796875v6.328125h-3.0029296875v-14.9731445312h9.2451171875Z"/>
        <path d="M71.9745715125,22.8119395389v15.8745117188h-3.0029296875v-15.8745117188h3.0029296875Z"/>
        <path d="M85.897423075,33.6454356327h-8.6884765625c.0712890625.8579101562.3720703125,1.5302734375.9013671875,2.0161132812.5283203125.486328125,1.1796875.7294921875,1.9521484375.7294921875,1.115234375,0,1.9091796875-.4790039062,2.380859375-1.4370117188h3.2392578125c-.3427734375,1.1440429688-1.0009765625,2.0844726562-1.9736328125,2.8208007812-.97265625.7368164062-2.1669921875,1.1044921875-3.58203125,1.1044921875-1.14453125,0-2.1708984375-.2534179688-3.0791015625-.7612304688s-1.6162109375-1.2260742188-2.123046875-2.15625c-.5078125-.9291992188-.76171875-2.001953125-.76171875-3.2177734375,0-1.2294921875.25-2.3090820312.7509765625-3.2387695312.5-.9296875,1.201171875-1.64453125,2.1015625-2.1455078125.9013671875-.5004882812,1.9384765625-.7504882812,3.111328125-.7504882812,1.12890625,0,2.1416015625.2431640625,3.03515625.7290039062.8935546875.486328125,1.5869140625,1.1767578125,2.0810546875,2.0703125.4931640625.8940429688.740234375,1.919921875.740234375,3.078125,0,.4291992188-.029296875.8154296875-.0859375,1.1586914062ZM82.87203245,31.6288340702c-.013671875-.7724609375-.29296875-1.390625-.8359375-1.85546875-.5439453125-.46484375-1.208984375-.697265625-1.9951171875-.697265625-.744140625,0-1.3701171875.2250976562-1.876953125.67578125-.5078125.4501953125-.8193359375,1.076171875-.93359375,1.876953125h5.6416015625ZM82.4218371375,23.7772715702v2.1455078125l-4.93359375-2.2524414062v-2.4458007812l4.93359375,2.552734375Z"/>
        <path d="M88.1493762,29.5160411014c.5-.9228515625,1.193359375-1.6376953125,2.080078125-2.1455078125.88671875-.5073242188,1.90234375-.7612304688,3.046875-.7612304688,1.47265625,0,2.6923828125.3681640625,3.6572265625,1.1044921875.9658203125.7368164062,1.6123046875,1.7700195312,1.94140625,3.099609375h-3.2392578125c-.171875-.5146484375-.4609375-.9184570312-.869140625-1.2119140625-.4072265625-.29296875-.9111328125-.439453125-1.51171875-.439453125-.8583984375,0-1.5380859375.3110351562-2.0380859375.9331054688-.5009765625.6220703125-.7509765625,1.5053710938-.7509765625,2.6489257812,0,1.1303710938.25,2.005859375.7509765625,2.6279296875.5.6220703125,1.1796875.9331054688,2.0380859375.9331054688,1.21484375,0,2.0087890625-.54296875,2.380859375-1.6303710938h3.2392578125c-.3291015625,1.287109375-.9794921875,2.3100585938-1.9521484375,3.0678710938-.97265625.7583007812-2.1884765625,1.13671875-3.646484375,1.13671875-1.14453125,0-2.16015625-.2534179688-3.046875-.7612304688s-1.580078125-1.22265625-2.080078125-2.1455078125c-.5009765625-.9223632812-.7509765625-1.998046875-.7509765625-3.228515625,0-1.2294921875.25-2.3056640625.7509765625-3.2280273438Z"/>
        <path d="M110.1806262,27.2206309452c.7001953125.3935546875,1.2470703125.97265625,1.640625,1.7373046875.3935546875.7651367188.58984375,1.6840820312.58984375,2.7568359375v6.9716796875h-3.0029296875v-6.564453125c0-.9438476562-.236328125-1.6694335938-.7080078125-2.1772460938-.4716796875-.5073242188-1.115234375-.7612304688-1.9306640625-.7612304688-.830078125,0-1.484375.25390625-1.962890625.7612304688-.4794921875.5078125-.71875,1.2333984375-.71875,2.1772460938v6.564453125h-3.0029296875v-15.8745117188h3.0029296875v5.4702148438c.3857421875-.5146484375.9013671875-.9184570312,1.544921875-1.2119140625.6435546875-.29296875,1.3583984375-.4399414062,2.14453125-.4399414062.9013671875,0,1.7021484375.1967773438,2.4033203125.5903320312Z"/>
        <path d="M126.2265246375,33.6454356327h-8.6884765625c.0712890625.8579101562.3720703125,1.5302734375.9013671875,2.0161132812.5283203125.486328125,1.1796875.7294921875,1.9521484375.7294921875,1.115234375,0,1.9091796875-.4790039062,2.380859375-1.4370117188h3.2392578125c-.3427734375,1.1440429688-1.0009765625,2.0844726562-1.9736328125,2.8208007812-.97265625.7368164062-2.1669921875,1.1044921875-3.58203125,1.1044921875-1.14453125,0-2.1708984375-.2534179688-3.0791015625-.7612304688s-1.6162109375-1.2260742188-2.123046875-2.15625c-.5078125-.9291992188-.76171875-2.001953125-.76171875-3.2177734375,0-1.2294921875.25-2.3090820312.7509765625-3.2387695312.5-.9296875,1.201171875-1.64453125,2.1015625-2.1455078125.9013671875-.5004882812,1.9384765625-.7504882812,3.111328125-.7504882812,1.12890625,0,2.1416015625.2431640625,3.03515625.7290039062.8935546875.486328125,1.5869140625,1.1767578125,2.0810546875,2.0703125.4931640625.8940429688.740234375,1.919921875.740234375,3.078125,0,.4291992188-.029296875.8154296875-.0859375,1.1586914062ZM123.2011340125,31.6288340702c-.013671875-.7724609375-.29296875-1.390625-.8359375-1.85546875-.5439453125-.46484375-1.208984375-.697265625-1.9951171875-.697265625-.744140625,0-1.3701171875.2250976562-1.876953125.67578125-.5078125.4501953125-.8193359375,1.076171875-.93359375,1.876953125h5.6416015625Z"/>
        <path d="M147.0566027625,23.7133067264l-5.4921875,14.9731445312h-3.646484375l-5.4912109375-14.9731445312h3.2177734375l4.1181640625,11.9057617188,4.09765625-11.9057617188h3.1962890625Z"/>
        <path d="M159.8202746375,33.6454356327h-8.6884765625c.0712890625.8579101562.3720703125,1.5302734375.9013671875,2.0161132812.5283203125.486328125,1.1796875.7294921875,1.9521484375.7294921875,1.115234375,0,1.9091796875-.4790039062,2.380859375-1.4370117188h3.2392578125c-.3427734375,1.1440429688-1.0009765625,2.0844726562-1.9736328125,2.8208007812-.97265625.7368164062-2.1669921875,1.1044921875-3.58203125,1.1044921875-1.14453125,0-2.1708984375-.2534179688-3.0791015625-.7612304688s-1.6162109375-1.2260742188-2.123046875-2.15625c-.5078125-.9291992188-.76171875-2.001953125-.76171875-3.2177734375,0-1.2294921875.25-2.3090820312.7509765625-3.2387695312.5-.9296875,1.201171875-1.64453125,2.1015625-2.1455078125.9013671875-.5004882812,1.9384765625-.7504882812,3.111328125-.7504882812,1.12890625,0,2.1416015625.2431640625,3.03515625.7290039062.8935546875.486328125,1.5869140625,1.1767578125,2.0810546875,2.0703125.4931640625.8940429688.740234375,1.919921875.740234375,3.078125,0,.4291992188-.029296875.8154296875-.0859375,1.1586914062ZM156.7948840125,31.6288340702c-.013671875-.7724609375-.29296875-1.390625-.8359375-1.85546875-.5439453125-.46484375-1.208984375-.697265625-1.9951171875-.697265625-.744140625,0-1.3701171875.2250976562-1.876953125.67578125-.5078125.4501953125-.8193359375,1.076171875-.93359375,1.876953125h5.6416015625Z"/>
        <path d="M166.6103137,27.1669200077c.6220703125-.357421875,1.3330078125-.5366210938,2.1337890625-.5366210938v3.1538085938h-.79296875c-.9443359375,0-1.65625.2216796875-2.134765625.6650390625-.4794921875.443359375-.71875,1.2153320312-.71875,2.31640625v5.9208984375h-3.0029296875v-11.8842773438h3.0029296875v1.8447265625c.3857421875-.62890625.890625-1.1225585938,1.5126953125-1.4799804688Z"/>
        <path d="M174.256798075,29.2689707889v5.7490234375c0,.4008789062.0966796875.6904296875.2900390625.869140625s.517578125.2680664062.9755859375.2680664062h1.39453125v2.53125h-1.8876953125c-2.53125,0-3.796875-1.2299804688-3.796875-3.6899414062v-5.7275390625h-1.416015625v-2.466796875h1.416015625v-2.9389648438h3.0244140625v2.9389648438h2.66015625v2.466796875h-2.66015625Z"/>
        <path d="M190.045860575,33.6454356327h-8.6884765625c.0712890625.8579101562.3720703125,1.5302734375.9013671875,2.0161132812.5283203125.486328125,1.1796875.7294921875,1.9521484375.7294921875,1.115234375,0,1.9091796875-.4790039062,2.380859375-1.4370117188h3.2392578125c-.3427734375,1.1440429688-1.0009765625,2.0844726562-1.9736328125,2.8208007812-.97265625.7368164062-2.1669921875,1.1044921875-3.58203125,1.1044921875-1.14453125,0-2.1708984375-.2534179688-3.0791015625-.7612304688s-1.6162109375-1.2260742188-2.123046875-2.15625c-.5078125-.9291992188-.76171875-2.001953125-.76171875-3.2177734375,0-1.2294921875.25-2.3090820312.7509765625-3.2387695312.5-.9296875,1.201171875-1.64453125,2.1015625-2.1455078125.9013671875-.5004882812,1.9384765625-.7504882812,3.111328125-.7504882812,1.12890625,0,2.1416015625.2431640625,3.03515625.7290039062.8935546875.486328125,1.5869140625,1.1767578125,2.0810546875,2.0703125.4931640625.8940429688.740234375,1.919921875.740234375,3.078125,0,.4291992188-.029296875.8154296875-.0859375,1.1586914062ZM187.02046995,31.6288340702c-.013671875-.7724609375-.29296875-1.390625-.8359375-1.85546875-.5439453125-.46484375-1.208984375-.697265625-1.9951171875-.697265625-.744140625,0-1.3701171875.2250976562-1.876953125.67578125-.5078125.4501953125-.8193359375,1.076171875-.93359375,1.876953125h5.6416015625Z"/>
      </g>
      <path d="M45.0500433323,34.521888591l-5.6703156921-13.7783808573-3.9833557402,3.9633796422,4.8800661287,11.8465947395c.0199517369.0438986933.0399034737.0917926063.0638504302.1396865192.6226452292,1.2931843713.2394695647,2.857775703-.9100087068,3.7239100775l-11.4271563146,8.5933032069c-1.1415365545.8581439354-2.6981374469.8062548028-3.7837896493-.1237300019l-18.0487455688-15.4743624849c-.6226452292-.5348234814-.9818739373-1.3131361082-.9818739373-2.1353474283,0-.993835235.5308526229-1.9238200397,1.3889721972-2.422735267l7.0566784124-4.135003557c2.195227-1.2852182933,3.5642474604-3.6640305058,3.5762087581-6.2065005552l.0159808784-3.1292070244c.0039708585-.5947030531.2474600038-1.1335217542.6425969661-1.5246878579.3911417426-.387146523.9299848048-.6306113073,1.5246878579-.6306113073l16.0006881289.0077084184-1.7390003582,1.6498208527c-1.0202487826.9679283322-1.3270102647,2.4701986097-.7679147218,3.7606268365l.8949372337,2.0655723016,8.5174671179-8.5214866986c.4869539296-.4829343489.7623561095-1.145507413.7623561095-1.8320030724,0-.0008282772-.0001218055-.0016565545-.0001218055-.0024848317,0-.0008282772.0001218055-.0016321934.0001218055-.0024604706,0-.6864956594-.2754021799-1.3490687235-.7623561095-1.8320030724L33.7825496349,0l-1.0004216645,2.3441154507c-.5191977472,1.2165464868-.2736477085,2.6247206177.6266578514,3.5937415432l1.9637036862,2.1135823751-15.9706840776-.0119612977h-.0119612977c-4.0312496531,0-7.3280610117,3.2808548413-7.3520079681,7.3160753529l-.0159808784,3.1292070244c-.0036975347.7240122482-.3889915711,1.3923928367-1.0136668328,1.7584368569l-6.8246441689,3.9990701426c-2.0315840962,1.1904572751-3.5715333857,3.1432326561-4.0280624366,5.4532334547-.5726260397,2.8974423565.4652515406,5.7907241042,2.6384393433,7.6562455763l18.0487699299,15.4743381238c1.5206926383,1.3051700301,3.4325270193,1.9637235135,5.3483566198,1.9637235135,1.7362396076,0,3.4764500737-.5428139206,4.9292970622-1.6324369815l11.4311271731-8.593327568c3.0972696287-2.3309182997,4.1389987766-6.5417579457,2.498571356-10.0421549759Z"/>
    </g>
  </g>
</svg>