<?xml version="1.0" encoding="UTF-8"?>
<svg id="Calque_2" data-name="Calque 2" xmlns="http://www.w3.org/2000/svg" viewBox="0 0 131.1614688441 54.7898081164">
  <g id="Calque_1-2" data-name="Calque 1">
    <g>
      <g>
        <path d="M4.0810546875,19.4032873442c.4130859375,0,.77734375.0244140625,1.21484375.169921875l.4130859375-1.6274414062c.77734375-3.1337890625,2.064453125-4.8583984375,4.396484375-4.8583984375,3.01171875,0,5.6357421875,2.4291992188,6.169921875,5.4897460938.53515625,1.9677734375.728515625,2.76953125,2.259765625,2.76953125h1.287109375v3.3764648438h-1.3603515625c-1.5791015625,0-2.2353515625-.4614257812-2.76953125-1.5791015625h-.072265625c-.77734375,1.1176757812-1.9677734375,1.7490234375-3.376953125,1.7490234375-2.55078125,0-5.4658203125-2.2348632812-7.4814453125-2.2348632812-1.0205078125,0-1.7255859375.7529296875-1.7255859375,2.5751953125l.0244140625,5.8544921875-3.060546875.3154296875v-6.048828125c0-4.0322265625,1.3603515625-5.951171875,4.0810546875-5.951171875ZM13.603515625,19.889127188c.0244140625-1.7006835938-1.5302734375-3.5952148438-3.0849609375-3.5708007812-1.263671875,0-1.89453125,2.0161132812-2.283203125,4.0322265625,1.3359375.6318359375,2.4287109375,1.2631835938,3.6923828125,1.2631835938,1.068359375,0,1.6513671875-.8017578125,1.67578125-1.724609375Z"/>
        <path d="M20.96484375,26.5204748442l.0234375-1.7973632812h-2.13671875v-3.3764648438h2.3076171875l.6796875-8.0893554688,3.0361328125-.9233398438c3.546875,2.9150390625,5.1015625,4.931640625,5.1015625,6.6806640625,0,.8984375-.21875,1.6518554688-.607421875,2.2587890625,1.1181640625.0732421875,1.5791015625.0732421875,2.501953125.0732421875h.77734375v3.3764648438h-.947265625c-.3154296875,0-.80078125-.0483398438-1.287109375-.1459960938.267578125.5830078125.4130859375,1.2392578125.4130859375,1.8950195312,0,2.4291992188-2.0654296875,4.1538085938-5.00390625,4.1538085938-3.0126953125,0-4.8583984375-1.6030273438-4.8583984375-4.10546875ZM27.8388671875,25.9135412505c0-1.0688476562-.607421875-1.7734375-1.6025390625-1.7734375-.826171875,0-1.384765625.0727539062-2.4052734375.2670898438-.048828125.826171875-.048828125.8017578125-.048828125,1.5546875,0,1.0688476562.6318359375,1.6279296875,1.9677734375,1.6279296875,1.1904296875,0,2.0888671875-.6806640625,2.0888671875-1.6762695312ZM25.9443359375,20.9579748442c.6806640625-.3403320312,1.044921875-.99609375,1.044921875-1.9189453125,0-1.044921875-.705078125-1.8950195312-2.4541015625-3.3037109375l-.5341796875,5.5869140625c.8017578125-.0244140625,1.384765625-.0971679688,1.943359375-.3642578125Z"/>
        <path d="M31.919921875,21.3466467192h8.259765625v3.3764648438h-8.259765625v-3.3764648438Z"/>
        <path d="M44.94140625,23.3627600005h-.048828125c-.6796875.8989257812-1.67578125,1.3603515625-3.740234375,1.3603515625h-1.943359375v-3.3764648438h1.943359375c1.796875,0,2.1611328125-.5830078125,2.283203125-2.0405273438l.291015625-3.6440429688,3.0126953125-.2426757812c-.1943359375,1.89453125-.2431640625,2.6235351562-.31640625,4.056640625-.072265625,1.5546875.486328125,2.2836914062,1.943359375,2.2836914062,1.7490234375,0,2.162109375-.65625,2.3564453125-1.9921875.169921875-1.2875976562.267578125-2.0888671875.4130859375-3.546875l2.98828125-.2426757812c-.169921875,1.6274414062-.267578125,2.33203125-.3408203125,3.6196289062-.072265625,1.5791015625.7294921875,2.162109375,1.9921875,2.162109375,1.505859375,0,2.162109375-.65625,2.162109375-2.4052734375,0-1.3359375-.267578125-2.9877929688-.6318359375-5.5625l3.0126953125-.2431640625c.33984375,2.4047851562.55859375,3.9838867188.607421875,5.3442382812.072265625,1.6518554688.33984375,2.4536132812,1.8701171875,2.4536132812h1.43359375v3.3764648438h-1.3115234375c-1.5068359375,0-2.380859375-.6313476562-2.8427734375-1.4575195312h-.0732421875c-.7529296875,1.1416015625-2.064453125,1.8217773438-4.1044921875,1.8217773438-1.5546875,0-3.0615234375-.6313476562-3.7412109375-1.9672851562h-.048828125c-.7041015625,1.3359375-2.380859375,1.9672851562-3.7890625,1.9672851562-1.8955078125,0-2.697265625-.55859375-3.376953125-1.724609375Z"/>
        <path d="M63.2578125,21.3466467192h.875c1.384765625,0,1.724609375-.55859375,1.724609375-2.2109375V7.4755529692l3.1826171875-.3642578125v13.1420898438c0,2.720703125-1.2880859375,4.4697265625-3.8388671875,4.4697265625h-1.943359375v-3.3764648438Z"/>
        <path d="M75.0888671875,7.1112951567v17.6118164062h-3.1826171875V7.4755529692l3.1826171875-.3642578125Z"/>
        <path d="M8.4925980794,45.4428827039c0-2.1565442349-.3111048628-4.0973377289-.8620397902-8.2418709324l3.0667426725-.3115864493c.2870255391,2.1324649111.5027762799,3.6176775999.6703683731,5.2709639684.1444759425,1.413456304.5037394528,2.1324649111,1.6056093075,2.1324649111h1.1741078259v3.3301704743h-1.2945044447c-.5981304019,0-1.1018698547-.2393484781-1.4129747175-.6467706359h-.0722379712c-.3592635103,4.0491790814-2.3713318027,5.6779045397-8.0983581629,6.4445902079l-.4786969561-3.0426633488c4.5519553613-.6944476969,5.7019838635-1.4852126888,5.7019838635-4.9352981953Z"/>
        <path d="M13.1899925561,44.2928542017h1.7963175516c1.5092920125,0,1.9889521416-.6472522223,1.9889521416-2.0607085263v-3.2820118268l3.11490132-.287988712v3.4264877693c0,.7902834054.1194334458,1.2458642107.5027762799,1.6292070448,2.5398870689-3.8334283406,5.1751282599-7.5474232355,9.0326359243-7.5474232355,3.5935982761,0,5.8936552805,2.2047028823,5.9177346043,5.5107940329l.0240793237.6226913121c.0240793237,1.4616149515.6703683731,1.9889521416,1.7250427533,1.9889521416h1.1259491784v3.3301704743h-1.2935412717c-1.5333713363,0-2.3722949756-.6226913121-2.8509919317-1.6532863685h-.0722379712c-1.0777905309,1.1259491784-2.923229903,1.6532863685-5.1992075836,1.6532863685h-7.1159217539c-1.5092920125,0-2.6111618672-.5509349273-3.3296888878-1.6532863685h-.0722379712c-.7185270206,1.1023514412-1.8444761991,1.6532863685-3.3306520608,1.6532863685h-1.9639096449v-3.3301704743ZM22.6050081415,33.7027676174l1.8926348466-1.8926348466,1.9167141703,1.9407934941-1.8685555228,1.8685555228-1.9407934941-1.9167141703ZM32.5247263526,41.825205104c0-1.5333713363-1.1500285022-2.5158077452-2.9954678742-2.5158077452-2.3482156519,0-4.0491790814,2.0361476161-6.03716805,4.9834568428h5.5103124464c2.2759776806,0,3.5223234778-.7907649919,3.5223234778-2.4676490977Z"/>
        <path d="M37.4600245479,44.2928542017h9.7521261179c2.3241363281,0,3.7852696932-1.3176205955,4.288045973-2.5158077452v-.0958357085c-4.576034685-1.4856942752-7.402947293-2.2042212959-8.6492930902-2.2042212959-.9342777614,0-1.5092920125.5509349273-1.8444761991,1.413456304l-2.0130314653-.8625213766c.5990935748-2.4194904502,1.7260059262-3.7611903694,3.5945614491-3.7611903694,2.1555810619,0,6.2047601433,1.2935412717,11.8354692085,3.1384990573v2.8033148707c-.7666856681,2.5394054824-2.9945047013,5.4144767379-7.3798311422,5.4144767379h-9.5835708516v-3.3301704743ZM40.3360589764,32.8402462408l1.8926348466-1.8926348466,1.9167141703,1.9407934941-1.8695186958,1.8685555228-1.9398303211-1.9167141703Z"/>
        <path d="M56.7716421937,31.6902177386l1.0065157327-.3592635103v-.047677061c-.3111048628-.2639093883-.6944476969-.7430879309-.7426063444-1.509773599-.0481586475-1.221784887.7907649919-2.3000570044,2.5158077452-2.3477340654.4546176324,0,.8620397902.0240793237,1.2213033005.0958357085l-.1675920933,1.3416999192c-.3833428341-.0481586475-.6222097256-.0481586475-.8861191139-.0481586475-.6944476969.0240793237-1.269461948.2157507408-1.269461948.8866007004,0,.5268556036.4786969561.8866007004.9824364089.8866007004.5268556036,0,1.077790531-.2157507408,1.7963175516-.4315014816v1.318102182l-4.4566012392,1.5810483973v-1.365779243ZM58.0179879908,34.2777818685l2.826912608-1.0777905309,3.1871392913,8.9122393055-2.6602836877,1.0065157327-3.3537682116-8.8409645072ZM63.9357225951,43.7178399506c1.4852126888-.5750142511,1.9889521416-1.2699435345,1.9889521416-3.9533433729v-9.2719844023l3.0908219963-.2398300645v10.8058373251c0,3.1384990573-1.2945044447,4.9112188716-3.6186407728,5.7019838635-1.9407934941.6708499596-3.6417569236,1.1018698547-5.653825216,1.5815299838l-.8148443156-3.2107370285c2.0843062636-.5032578663,3.5935982761-.8866007004,5.0075361666-1.413456304Z"/>
        <path d="M74.9804268117,30.2526821109v17.3703425652h-3.1389806438v-17.0110790549l3.1389806438-.3592635103Z"/>
      </g>
      <path d="M130.3900406435,34.521888591l-5.6703156921-13.7783808573-3.9833557402,3.9633796422,4.8800661287,11.8465947395c.0199517369.0438986933.0399034737.0917926063.0638504302.1396865192.6226452292,1.2931843713.2394695647,2.857775703-.9100087068,3.7239100775l-11.4271563146,8.5933032069c-1.1415365545.8581439354-2.6981374469.8062548028-3.7837896492-.1237300019l-18.0487455688-15.4743624849c-.6226452292-.5348234814-.9818739373-1.3131361082-.9818739373-2.1353474283,0-.993835235.5308526229-1.9238200397,1.3889721972-2.422735267l7.0566784124-4.1350035571c2.195227-1.2852182933,3.5642474604-3.6640305058,3.5762087581-6.2065005552l.0159808784-3.1292070244c.0039708585-.5947030531.2474600038-1.1335217542.6425969661-1.5246878579.3911417426-.387146523.9299848048-.6306113073,1.5246878579-.6306113073l16.0006881289.0077084184-1.7390003582,1.6498208527c-1.0202487826.9679283322-1.3270102647,2.4701986097-.7679147218,3.7606268365l.8949372337,2.0655723016,8.517467118-8.5214866986c.4869539296-.4829343489.7623561095-1.145507413.7623561095-1.8320030724,0-.0008282772-.0001218055-.0016565545-.0001218055-.0024848317,0-.0008282772.0001218055-.0016321934.0001218055-.0024604706,0-.6864956594-.2754021799-1.3490687235-.7623561095-1.8320030724L119.1225469461,0l-1.0004216645,2.3441154507c-.5191977472,1.2165464868-.2736477085,2.6247206177.6266578514,3.5937415432l1.9637036862,2.1135823751-15.9706840776-.0119612977h-.0119612977c-4.0312496531,0-7.3280610117,3.2808548413-7.3520079681,7.3160753529l-.0159808784,3.1292070244c-.0036975347.7240122482-.3889915711,1.3923928367-1.0136668328,1.7584368569l-6.8246441689,3.9990701426c-2.0315840962,1.1904572751-3.5715333857,3.1432326561-4.0280624366,5.4532334547-.5726260397,2.8974423565.4652515406,5.7907241042,2.6384393433,7.6562455763l18.0487699299,15.4743381238c1.5206926383,1.3051700301,3.4325270193,1.9637235135,5.3483566198,1.9637235135,1.7362396076,0,3.4764500737-.5428139206,4.9292970622-1.6324369815l11.4311271731-8.593327568c3.0972696287-2.3309182997,4.1389987766-6.5417579457,2.498571356-10.0421549759Z"/>
    </g>
  </g>
</svg>