<?xml version="1.0" encoding="UTF-8"?>
<svg id="Calque_2" data-name="Calque 2" xmlns="http://www.w3.org/2000/svg" viewBox="0 0 206.5687044652 54.7898081164">
  <defs>
    <style>
      .cls-1 {
        fill: #fff;
      }
    </style>
  </defs>
  <g id="Calque_1-2" data-name="Calque 1">
    <g>
      <g>
        <path class="cls-1" d="M5.78125,35.9216894184c0-2.1865234375-.3154296875-4.154296875-.8740234375-8.3564453125l3.109375-.31640625c.291015625,2.162109375.509765625,3.66796875.6796875,5.3447265625.146484375,1.4326171875.5107421875,2.162109375,1.6279296875,2.162109375h1.1904296875v3.3759765625h-1.3125c-.6064453125,0-1.1171875-.2421875-1.4326171875-.6552734375h-.0732421875c-.3642578125,4.10546875-2.404296875,5.7568359375-8.2109375,6.5341796875l-.4853515625-3.0849609375c4.615234375-.7041015625,5.78125-1.505859375,5.78125-5.00390625Z"/>
        <path class="cls-1" d="M10.5439453125,34.7556737934h1.8212890625c1.5302734375,0,2.0166015625-.65625,2.0166015625-2.08984375v-3.3271484375l3.158203125-.2919921875v3.4736328125c0,.8017578125.12109375,1.263671875.509765625,1.65234375,2.5751953125-3.88671875,5.2470703125-7.65234375,9.158203125-7.65234375,3.6435546875,0,5.9755859375,2.2353515625,6,5.5869140625l.0244140625.6318359375c.0244140625,1.4814453125.6796875,2.0166015625,1.7490234375,2.0166015625h1.1416015625v3.3759765625h-1.3115234375c-1.5546875,0-2.4052734375-.630859375-2.890625-1.67578125h-.0732421875c-1.0927734375,1.1416015625-2.9638671875,1.67578125-5.271484375,1.67578125h-7.21484375c-1.5302734375,0-2.6474609375-.55859375-3.3759765625-1.67578125h-.0732421875c-.728515625,1.1171875-1.8701171875,1.67578125-3.376953125,1.67578125h-1.9912109375v-3.3759765625ZM20.08984375,24.0183691059l1.9189453125-1.9189453125,1.943359375,1.9677734375-1.89453125,1.89453125-1.9677734375-1.943359375ZM30.1474609375,32.2537206684c0-1.5546875-1.166015625-2.55078125-3.037109375-2.55078125-2.380859375,0-4.10546875,2.064453125-6.12109375,5.052734375h5.5869140625c2.3076171875,0,3.5712890625-.8017578125,3.5712890625-2.501953125Z"/>
        <path class="cls-1" d="M35.1513671875,34.7556737934h9.8876953125c2.3564453125,0,3.837890625-1.3359375,4.34765625-2.55078125v-.09765625c-4.6396484375-1.505859375-7.505859375-2.234375-8.76953125-2.234375-.947265625,0-1.5302734375.55859375-1.8701171875,1.4326171875l-2.041015625-.8740234375c.607421875-2.453125,1.75-3.8134765625,3.64453125-3.8134765625,2.185546875,0,6.291015625,1.3115234375,12,3.181640625v2.8427734375c-.77734375,2.57421875-3.0361328125,5.4892578125-7.482421875,5.4892578125h-9.716796875v-3.3759765625ZM38.0673828125,23.1433691059l1.9189453125-1.9189453125,1.943359375,1.9677734375-1.8955078125,1.89453125-1.966796875-1.943359375Z"/>
        <path class="cls-1" d="M54.7314453125,21.9773534809l1.0205078125-.3642578125v-.0478515625c-.3154296875-.267578125-.7041015625-.75390625-.7529296875-1.53125-.048828125-1.23828125.8017578125-2.33203125,2.55078125-2.3798828125.4609375,0,.8740234375.0244140625,1.23828125.0966796875l-.169921875,1.3603515625c-.388671875-.048828125-.630859375-.048828125-.8984375-.048828125-.7041015625.0244140625-1.287109375.21875-1.287109375.8994140625,0,.5341796875.4853515625.8984375.99609375.8984375.5341796875,0,1.0927734375-.21875,1.8212890625-.4375v1.3369140625l-4.5185546875,1.6025390625v-1.384765625ZM55.9951171875,24.6013769184l2.8662109375-1.0927734375,3.2314453125,9.0361328125-2.697265625,1.0205078125-3.400390625-8.9638671875ZM61.9951171875,34.1726659809c1.505859375-.5830078125,2.0166015625-1.2880859375,2.0166015625-4.0087890625v-9.400390625l3.1337890625-.2431640625v10.9560546875c0,3.181640625-1.3125,4.9794921875-3.6689453125,5.78125-1.9677734375.6796875-3.6923828125,1.1171875-5.732421875,1.603515625l-.826171875-3.255859375c2.11328125-.509765625,3.6435546875-.8984375,5.0771484375-1.4326171875Z"/>
        <path class="cls-1" d="M73.193359375,20.5203222309v17.611328125h-3.1826171875v-17.2470703125l3.1826171875-.3642578125Z"/>
        <path class="cls-1" d="M84.6845703125,32.8123144184c.4130859375,0,.77734375.0244140625,1.21484375.169921875l.4130859375-1.6279296875c.77734375-3.1337890625,2.064453125-4.8583984375,4.396484375-4.8583984375,3.0126953125,0,5.6357421875,2.4296875,6.169921875,5.490234375.5341796875,1.9677734375.7294921875,2.76953125,2.259765625,2.76953125h1.287109375v3.3759765625h-1.3603515625c-1.5791015625,0-2.234375-.4609375-2.76953125-1.5791015625h-.072265625c-.77734375,1.1181640625-1.9677734375,1.7490234375-3.376953125,1.7490234375-2.55078125,0-5.4658203125-2.234375-7.482421875-2.234375-1.01953125,0-1.724609375.7529296875-1.724609375,2.5751953125l.0244140625,5.8544921875-3.060546875.3154296875v-6.048828125c0-4.0322265625,1.3603515625-5.951171875,4.0810546875-5.951171875ZM94.20703125,33.2976659809c.0244140625-1.7001953125-1.5302734375-3.5947265625-3.0849609375-3.5703125-1.263671875,0-1.89453125,2.015625-2.283203125,4.0322265625,1.3359375.6318359375,2.4287109375,1.2626953125,3.6923828125,1.2626953125,1.068359375,0,1.6513671875-.8017578125,1.67578125-1.724609375Z"/>
        <path class="cls-1" d="M101.568359375,39.9295019184l.0244140625-1.7978515625h-2.138671875v-3.3759765625h2.30859375l.6796875-8.08984375,3.037109375-.9228515625c3.5458984375,2.9150390625,5.1005859375,4.931640625,5.1005859375,6.6806640625,0,.8984375-.21875,1.6513671875-.607421875,2.2587890625,1.1181640625.0732421875,1.5791015625.0732421875,2.5029296875.0732421875h.77734375v3.3759765625h-.9482421875c-.3154296875,0-.8017578125-.0478515625-1.287109375-.1455078125.267578125.5830078125.4130859375,1.2392578125.4130859375,1.89453125,0,2.4296875-2.064453125,4.154296875-5.00390625,4.154296875-3.0126953125,0-4.8583984375-1.603515625-4.8583984375-4.10546875ZM108.4423828125,39.3220800434c0-1.068359375-.607421875-1.7734375-1.603515625-1.7734375-.8251953125,0-1.3837890625.0732421875-2.404296875.267578125-.048828125.826171875-.048828125.8017578125-.048828125,1.5546875,0,1.068359375.6318359375,1.6279296875,1.9677734375,1.6279296875,1.1904296875,0,2.0888671875-.6806640625,2.0888671875-1.6767578125ZM106.5478515625,34.3670019184c.6796875-.3408203125,1.044921875-.99609375,1.044921875-1.9189453125,0-1.044921875-.705078125-1.8955078125-2.4541015625-3.3037109375l-.5341796875,5.5869140625c.8017578125-.0244140625,1.384765625-.09765625,1.943359375-.3642578125Z"/>
        <path class="cls-1" d="M118.2568359375,36.7712987934h-.048828125c-.6796875.8994140625-1.67578125,1.3603515625-3.740234375,1.3603515625h-1.943359375v-3.3759765625h1.943359375c1.796875,0,2.1611328125-.5830078125,2.283203125-2.041015625l.291015625-3.6435546875,3.0126953125-.2431640625c-.1943359375,1.89453125-.2431640625,2.6240234375-.31640625,4.056640625-.072265625,1.5546875.486328125,2.2841796875,1.943359375,2.2841796875,1.7490234375,0,2.162109375-.65625,2.3564453125-1.9921875.169921875-1.2880859375.267578125-2.0888671875.4130859375-3.546875l2.98828125-.2431640625c-.169921875,1.6279296875-.267578125,2.33203125-.3408203125,3.6201171875-.072265625,1.5791015625.7294921875,2.162109375,1.9921875,2.162109375,1.505859375,0,2.162109375-.65625,2.162109375-2.4052734375,0-1.3359375-.267578125-2.98828125-.6318359375-5.5625l3.0126953125-.2431640625c.33984375,2.404296875.55859375,3.9833984375.607421875,5.34375.072265625,1.65234375.33984375,2.4541015625,1.8701171875,2.4541015625h1.43359375v3.3759765625h-1.3115234375c-1.5068359375,0-2.380859375-.630859375-2.8427734375-1.45703125h-.0732421875c-.7529296875,1.1416015625-2.064453125,1.8212890625-4.1044921875,1.8212890625-1.5546875,0-3.0615234375-.630859375-3.7412109375-1.966796875h-.048828125c-.7041015625,1.3359375-2.380859375,1.966796875-3.7890625,1.966796875-1.8955078125,0-2.697265625-.55859375-3.376953125-1.724609375Z"/>
        <path class="cls-1" d="M136.5732421875,34.7556737934h.875c1.384765625,0,1.724609375-.55859375,1.724609375-2.2109375v-11.66015625l3.1826171875-.3642578125v13.1416015625c0,2.720703125-1.2880859375,4.4697265625-3.8388671875,4.4697265625h-1.943359375v-3.3759765625Z"/>
        <path class="cls-1" d="M148.404296875,20.5203222309v17.611328125h-3.1826171875v-17.2470703125l3.1826171875-.3642578125Z"/>
      </g>
      <path class="cls-1" d="M205.7972762646,34.521888591l-5.6703156921-13.7783808573-3.9833557402,3.9633796422,4.8800661287,11.8465947395c.0199517369.0438986933.0399034737.0917926063.0638504302.1396865192.6226452292,1.2931843713.2394695647,2.857775703-.9100087068,3.7239100775l-11.4271563146,8.5933032069c-1.1415365545.8581439354-2.6981374469.8062548028-3.7837896492-.1237300019l-18.0487455688-15.4743624849c-.6226452292-.5348234814-.9818739373-1.3131361082-.9818739373-2.1353474283,0-.993835235.5308526229-1.9238200397,1.3889721972-2.422735267l7.0566784124-4.1350035571c2.195227-1.2852182933,3.5642474604-3.6640305058,3.5762087581-6.2065005552l.0159808784-3.1292070244c.0039708585-.5947030531.2474600038-1.1335217542.6425969661-1.5246878579.3911417426-.387146523.9299848048-.6306113073,1.5246878579-.6306113073l16.0006881289.0077084184-1.7390003582,1.6498208527c-1.0202487826.9679283322-1.3270102647,2.4701986097-.7679147218,3.7606268365l.8949372337,2.0655723016,8.517467118-8.5214866986c.4869539296-.4829343489.7623561095-1.145507413.7623561095-1.8320030724,0-.0008282772-.0001218055-.0016565545-.0001218055-.0024848317,0-.0008282772.0001218055-.0016321934.0001218055-.0024604706,0-.6864956594-.2754021799-1.3490687235-.7623561095-1.8320030724l-8.517467118-8.5214866986-1.0004216645,2.3441154507c-.5191977472,1.2165464868-.2736477085,2.6247206177.6266578514,3.5937415432l1.9637036862,2.1135823751-15.9706840776-.0119612977h-.0119612977c-4.0312496531,0-7.3280610117,3.2808548413-7.3520079681,7.3160753529l-.0159808784,3.1292070244c-.0036975347.7240122482-.3889915711,1.3923928367-1.0136668328,1.7584368569l-6.8246441689,3.9990701426c-2.0315840962,1.1904572751-3.5715333857,3.1432326561-4.0280624366,5.4532334547-.5726260397,2.8974423565.4652515406,5.7907241042,2.6384393433,7.6562455763l18.0487699299,15.4743381238c1.5206926383,1.3051700301,3.4325270193,1.9637235135,5.3483566198,1.9637235135,1.7362396076,0,3.4764500737-.5428139206,4.9292970622-1.6324369815l11.4311271731-8.593327568c3.0972696287-2.3309182997,4.1389987766-6.5417579457,2.498571356-10.0421549759Z"/>
    </g>
  </g>
</svg>