<?xml version="1.0" encoding="UTF-8"?>
<svg id="Calque_2" data-name="Calque 2" xmlns="http://www.w3.org/2000/svg" viewBox="0 0 190.6045858357 54.7898081164">
  <g id="Calque_1-2" data-name="Calque 1">
    <g>
      <path d="M45.0500433323,34.521888591l-5.6703156921-13.7783808573-3.9833557402,3.9633796422,4.8800661287,11.8465947395c.0199517369.0438986933.0399034737.0917926063.0638504302.1396865192.6226452292,1.2931843713.2394695647,2.857775703-.9100087068,3.7239100775l-11.4271563146,8.5933032069c-1.1415365545.8581439354-2.6981374469.8062548028-3.7837896493-.1237300019l-18.0487455688-15.4743624849c-.6226452292-.5348234814-.9818739373-1.3131361082-.9818739373-2.1353474283,0-.993835235.5308526229-1.9238200397,1.3889721972-2.422735267l7.0566784124-4.135003557c2.195227-1.2852182933,3.5642474604-3.6640305058,3.5762087581-6.2065005552l.0159808784-3.1292070244c.0039708585-.5947030531.2474600038-1.1335217542.6425969661-1.5246878579.3911417426-.387146523.9299848048-.6306113073,1.5246878579-.6306113073l16.0006881289.0077084184-1.7390003582,1.6498208527c-1.0202487826.9679283322-1.3270102647,2.4701986097-.7679147218,3.7606268365l.8949372337,2.0655723016,8.517467118-8.5214866986c.4869539296-.4829343489.7623561095-1.1455074129.7623561095-1.8320030724,0-.0008282772-.0001218055-.0016565545-.0001218055-.0024848317,0-.0008282772.0001218055-.0016321934.0001218055-.0024604706,0-.6864956594-.2754021799-1.3490687235-.7623561095-1.8320030724L33.7825496349,0l-1.0004216645,2.3441154507c-.5191977472,1.2165464868-.2736477085,2.6247206177.6266578514,3.5937415432l1.9637036862,2.1135823751-15.9706840776-.0119612977h-.0119612977c-4.0312496531,0-7.3280610117,3.2808548413-7.3520079681,7.3160753529l-.0159808784,3.1292070244c-.0036975347.7240122482-.3889915711,1.3923928367-1.0136668328,1.7584368569l-6.8246441689,3.9990701426c-2.0315840961,1.1904572751-3.5715333857,3.1432326561-4.0280624366,5.4532334547-.5726260397,2.8974423565.4652515406,5.7907241042,2.6384393433,7.6562455763l18.0487699299,15.4743381238c1.5206926383,1.3051700301,3.4325270193,1.9637235135,5.3483566198,1.9637235135,1.7362396076,0,3.4764500737-.5428139206,4.9292970622-1.6324369815l11.4311271731-8.593327568c3.0972696287-2.3309182997,4.1389987766-6.5417579457,2.498571356-10.0421549759Z"/>
      <g>
        <path d="M68.8155233357,28.1029507361c-.33984375-.62109375-.8056640625-1.0947265625-1.3984375-1.419921875-.59375-.32421875-1.28515625-.4873046875-2.076171875-.4873046875-.8759765625,0-1.65234375.1982421875-2.330078125.59375s-1.2080078125.9609375-1.5888671875,1.6943359375c-.3818359375.734375-.572265625,1.58203125-.572265625,2.5419921875,0,.9892578125.1943359375,1.8505859375.5830078125,2.5849609375.3876953125.734375.927734375,1.2998046875,1.6201171875,1.6943359375.6923828125.3955078125,1.4970703125.59375,2.4150390625.59375,1.1298828125,0,2.0546875-.2998046875,2.775390625-.900390625.7197265625-.6005859375,1.193359375-1.4365234375,1.4189453125-2.5107421875h-5.083984375v-2.2666015625h8.0078125v2.5849609375c-.1982421875,1.03125-.6220703125,1.984375-1.271484375,2.859375-.6494140625.8759765625-1.486328125,1.578125-2.509765625,2.1083984375-1.0244140625.529296875-2.171875.7939453125-3.4423828125.7939453125-1.4267578125,0-2.7158203125-.3212890625-3.8662109375-.9638671875-1.1513671875-.642578125-2.0556640625-1.5361328125-2.7119140625-2.6796875-.6572265625-1.1435546875-.9853515625-2.443359375-.9853515625-3.8984375,0-1.4541015625.328125-2.7568359375.9853515625-3.908203125.65625-1.150390625,1.560546875-2.0478515625,2.7119140625-2.6904296875,1.150390625-.642578125,2.4326171875-.9638671875,3.8447265625-.9638671875,1.666015625,0,3.1142578125.40625,4.3427734375,1.2177734375,1.228515625.8125,2.076171875,1.953125,2.5419921875,3.421875h-3.41015625Z"/>
        <path d="M79.2481405232,27.0648647986c.6142578125-.3525390625,1.3173828125-.529296875,2.1083984375-.529296875v3.11328125h-.7841796875c-.9326171875,0-1.634765625.2197265625-2.107421875.6572265625-.4736328125.4375-.7099609375,1.2001953125-.7099609375,2.2880859375v5.8466796875h-2.9658203125v-11.736328125h2.9658203125v1.822265625c.380859375-.62109375.87890625-1.1083984375,1.4931640625-1.4619140625Z"/>
        <path d="M94.1729452107,33.4623257361h-8.580078125c.0703125.84765625.3671875,1.51171875.8896484375,1.9912109375.5224609375.48046875,1.1650390625.720703125,1.927734375.720703125,1.1015625,0,1.8857421875-.4736328125,2.3515625-1.419921875h3.19921875c-.3388671875,1.130859375-.98828125,2.05859375-1.94921875,2.7861328125-.9599609375.7275390625-2.1396484375,1.0908203125-3.5380859375,1.0908203125-1.1298828125,0-2.142578125-.25-3.0390625-.751953125-.8974609375-.5009765625-1.5966796875-1.2109375-2.09765625-2.12890625-.501953125-.91796875-.751953125-1.9775390625-.751953125-3.177734375,0-1.21484375.2470703125-2.2802734375.7412109375-3.19921875.494140625-.9169921875,1.1865234375-1.623046875,2.076171875-2.1181640625.8896484375-.494140625,1.9140625-.7412109375,3.0712890625-.7412109375,1.1162109375,0,2.115234375.240234375,2.998046875.7197265625.8828125.48046875,1.5673828125,1.162109375,2.0546875,2.044921875s.7314453125,1.8955078125.7314453125,3.0400390625c0,.423828125-.0283203125.8046875-.0849609375,1.1435546875ZM91.1856405232,31.4711147986c-.013671875-.7626953125-.2890625-1.373046875-.826171875-1.83203125s-1.193359375-.6884765625-1.9697265625-.6884765625c-.734375,0-1.3525390625.2216796875-1.853515625.6669921875-.501953125.4443359375-.80859375,1.0625-.921875,1.853515625h5.5712890625Z"/>
        <path d="M107.2442342732,33.4623257361h-8.580078125c.0703125.84765625.3671875,1.51171875.8896484375,1.9912109375.5224609375.48046875,1.1650390625.720703125,1.927734375.720703125,1.1015625,0,1.8857421875-.4736328125,2.3515625-1.419921875h3.19921875c-.3388671875,1.130859375-.98828125,2.05859375-1.94921875,2.7861328125-.9599609375.7275390625-2.1396484375,1.0908203125-3.5380859375,1.0908203125-1.1298828125,0-2.142578125-.25-3.0390625-.751953125-.8974609375-.5009765625-1.5966796875-1.2109375-2.09765625-2.12890625-.501953125-.91796875-.751953125-1.9775390625-.751953125-3.177734375,0-1.21484375.2470703125-2.2802734375.7412109375-3.19921875.494140625-.9169921875,1.1865234375-1.623046875,2.076171875-2.1181640625.8896484375-.494140625,1.9140625-.7412109375,3.0712890625-.7412109375,1.1162109375,0,2.115234375.240234375,2.998046875.7197265625.8828125.48046875,1.5673828125,1.162109375,2.0546875,2.044921875s.7314453125,1.8955078125.7314453125,3.0400390625c0,.423828125-.0283203125.8046875-.0849609375,1.1435546875ZM104.2569295857,31.4711147986c-.013671875-.7626953125-.2890625-1.373046875-.826171875-1.83203125s-1.193359375-.6884765625-1.9697265625-.6884765625c-.734375,0-1.3525390625.2216796875-1.853515625.6669921875-.501953125.4443359375-.80859375,1.0625-.921875,1.853515625h5.5712890625Z"/>
        <path d="M119.3819295857,27.8588101111c.861328125.8828125,1.29296875,2.115234375,1.29296875,3.697265625v6.884765625h-2.9658203125v-6.482421875c0-.9326171875-.2333984375-1.6484375-.69921875-2.150390625-.4658203125-.5009765625-1.1015625-.751953125-1.9072265625-.751953125-.818359375,0-1.46484375.2509765625-1.9375.751953125-.4736328125.501953125-.7099609375,1.2177734375-.7099609375,2.150390625v6.482421875h-2.9658203125v-11.736328125h2.9658203125v1.4619140625c.3955078125-.5087890625.900390625-.9072265625,1.5146484375-1.197265625.6142578125-.2890625,1.2880859375-.43359375,2.0234375-.43359375,1.3974609375,0,2.52734375.44140625,3.388671875,1.3232421875Z"/>
        <path d="M137.6006795857,35.6234585486h-5.888671875l-.974609375,2.8173828125h-3.1142578125l5.3173828125-14.8076171875h3.453125l5.3173828125,14.8076171875h-3.1357421875l-.974609375-2.8173828125ZM136.7959920857,33.2504116736l-2.1396484375-6.185546875-2.1396484375,6.185546875h4.279296875Z"/>
        <path d="M148.1612264607,27.0648647986c.6142578125-.3525390625,1.3173828125-.529296875,2.1083984375-.529296875v3.11328125h-.7841796875c-.9326171875,0-1.634765625.2197265625-2.107421875.6572265625-.4736328125.4375-.7099609375,1.2001953125-.7099609375,2.2880859375v5.8466796875h-2.9658203125v-11.736328125h2.9658203125v1.822265625c.380859375-.62109375.87890625-1.1083984375,1.4931640625-1.4619140625Z"/>
        <path d="M156.7198202107,27.0648647986c.6142578125-.3525390625,1.3173828125-.529296875,2.1083984375-.529296875v3.11328125h-.7841796875c-.9326171875,0-1.634765625.2197265625-2.107421875.6572265625-.4736328125.4375-.7099609375,1.2001953125-.7099609375,2.2880859375v5.8466796875h-2.9658203125v-11.736328125h2.9658203125v1.822265625c.380859375-.62109375.87890625-1.1083984375,1.4931640625-1.4619140625Z"/>
        <path d="M162.9795858357,37.8793179236c-.9033203125-.5009765625-1.61328125-1.2109375-2.12890625-2.12890625s-.7724609375-1.9775390625-.7724609375-3.177734375.2646484375-2.259765625.7939453125-3.177734375,1.2529296875-1.6279296875,2.171875-2.12890625c.9169921875-.5009765625,1.94140625-.751953125,3.0712890625-.751953125s2.1533203125.2509765625,3.072265625.751953125c.9169921875.5009765625,1.6416015625,1.2109375,2.1708984375,2.12890625s.794921875,1.9775390625.794921875,3.177734375-.2724609375,2.259765625-.81640625,3.177734375-1.2783203125,1.6279296875-2.203125,2.12890625c-.9248046875.501953125-1.958984375.751953125-3.103515625.751953125-1.1298828125,0-2.146484375-.25-3.05078125-.751953125ZM167.5450155232,35.6547085486c.4736328125-.2607421875.8505859375-.65234375,1.1337890625-1.17578125.2822265625-.521484375.423828125-1.1572265625.423828125-1.90625,0-1.115234375-.2939453125-1.9736328125-.8798828125-2.57421875-.5859375-.599609375-1.302734375-.900390625-2.1494140625-.900390625-.84765625,0-1.5576171875.30078125-2.12890625.900390625-.572265625.6005859375-.8583984375,1.458984375-.8583984375,2.57421875,0,1.1162109375.2783203125,1.9736328125.8369140625,2.57421875.5576171875.6005859375,1.2607421875.900390625,2.107421875.900390625.537109375,0,1.0419921875-.130859375,1.5146484375-.392578125Z"/>
        <path d="M190.6045858357,26.7045132361l-3.431640625,11.736328125h-3.19921875l-2.1396484375-8.1982421875-2.1396484375,8.1982421875h-3.2197265625l-3.453125-11.736328125h3.0078125l2.076171875,8.9404296875,2.24609375-8.9404296875h3.134765625l2.203125,8.9189453125,2.076171875-8.9189453125h2.8388671875Z"/>
      </g>
    </g>
  </g>
</svg>