<?xml version="1.0" encoding="UTF-8"?>
<svg id="Calque_2" data-name="Calque 2" xmlns="http://www.w3.org/2000/svg" viewBox="0 0 127.6334867918 54.719788721">
  <defs>
    <style>
      .cls-1 {
        fill: #063a0c;
      }
    </style>
  </defs>
  <g id="Calque_1-2" data-name="Calque 1">
    <g>
      <g>
        <path class="cls-1" d="M68.1647367918,17.754063342c-.388671875-.7124023438-.9228515625-1.2548828125-1.603515625-1.6274414062-.6796875-.3725585938-1.4736328125-.55859375-2.380859375-.55859375-1.00390625,0-1.89453125.2270507812-2.671875.6801757812-.77734375.4536132812-1.384765625,1.1015625-1.822265625,1.943359375-.4365234375.8422851562-.6552734375,1.8139648438-.6552734375,2.9150390625,0,1.1337890625.22265625,2.1215820312.66796875,2.9638671875s1.064453125,1.490234375,1.8583984375,1.943359375c.79296875.4536132812,1.7158203125.6801757812,2.76953125.6801757812,1.294921875,0,2.3564453125-.34375,3.181640625-1.0327148438.826171875-.6879882812,1.369140625-1.6474609375,1.6279296875-2.8784179688h-5.830078125v-2.599609375h9.1826171875v2.9638671875c-.2275390625,1.1826171875-.712890625,2.275390625-1.4580078125,3.2797851562-.7451171875,1.00390625-1.7041015625,1.8095703125-2.8779296875,2.4169921875-1.1748046875.607421875-2.490234375.9111328125-3.9482421875.9111328125-1.6357421875,0-3.11328125-.3686523438-4.43359375-1.10546875-1.3193359375-.7368164062-2.35546875-1.7612304688-3.109375-3.0732421875-.7529296875-1.3115234375-1.12890625-2.8012695312-1.12890625-4.4697265625,0-1.66796875.3759765625-3.1616210938,1.12890625-4.4819335938.75390625-1.3198242188,1.7900390625-2.3481445312,3.109375-3.0854492188,1.3203125-.736328125,2.7900390625-1.1049804688,4.4091796875-1.1049804688,1.9111328125,0,3.5712890625.4658203125,4.98046875,1.396484375,1.4091796875.931640625,2.380859375,2.2392578125,2.9150390625,3.9233398438h-3.9111328125Z"/>
        <path class="cls-1" d="M80.1295805418,16.5636336545c.7041015625-.404296875,1.509765625-.6069335938,2.4169921875-.6069335938v3.5708007812h-.8984375c-1.0693359375,0-1.875.2514648438-2.41796875.7529296875-.5419921875.5024414062-.8134765625,1.376953125-.8134765625,2.6240234375v6.7045898438h-3.4013671875v-13.4580078125h3.4013671875v2.0888671875c.4375-.7124023438,1.0078125-1.2709960938,1.712890625-1.6762695312Z"/>
        <path class="cls-1" d="M97.2428617918,23.9000594358h-9.8388671875c.0810546875.9716796875.4208984375,1.7333984375,1.0205078125,2.2836914062.5986328125.55078125,1.3359375.826171875,2.2109375.826171875,1.2626953125,0,2.162109375-.5424804688,2.6962890625-1.6279296875h3.66796875c-.388671875,1.2958984375-1.1337890625,2.3608398438-2.234375,3.1948242188-1.1015625.833984375-2.4541015625,1.2509765625-4.0576171875,1.2509765625-1.2958984375,0-2.45703125-.2875976562-3.4853515625-.8623046875-1.029296875-.5747070312-1.8310546875-1.388671875-2.4052734375-2.44140625-.5751953125-1.052734375-.8623046875-2.267578125-.8623046875-3.6440429688,0-1.392578125.283203125-2.615234375.8505859375-3.6684570312.56640625-1.0522460938,1.3603515625-1.8618164062,2.3798828125-2.4291992188,1.0205078125-.56640625,2.1943359375-.8500976562,3.5224609375-.8500976562,1.279296875,0,2.42578125.275390625,3.4375.8256835938,1.0126953125.55078125,1.7978515625,1.3325195312,2.3564453125,2.3442382812.55859375,1.0126953125.837890625,2.1743164062.837890625,3.486328125,0,.4858398438-.0322265625.9228515625-.0966796875,1.3115234375ZM93.8170805418,21.6168563108c-.015625-.8745117188-.33203125-1.5751953125-.947265625-2.1015625-.615234375-.5258789062-1.3681640625-.7895507812-2.2587890625-.7895507812-.8427734375,0-1.55078125.2553710938-2.1259765625.765625-.5751953125.509765625-.9267578125,1.21875-1.056640625,2.1254882812h6.388671875Z"/>
        <path class="cls-1" d="M112.2321196043,23.9000594358h-9.8388671875c.0810546875.9716796875.4208984375,1.7333984375,1.0205078125,2.2836914062.5986328125.55078125,1.3359375.826171875,2.2109375.826171875,1.2626953125,0,2.162109375-.5424804688,2.6962890625-1.6279296875h3.66796875c-.388671875,1.2958984375-1.1337890625,2.3608398438-2.234375,3.1948242188-1.1015625.833984375-2.4541015625,1.2509765625-4.0576171875,1.2509765625-1.2958984375,0-2.45703125-.2875976562-3.4853515625-.8623046875-1.029296875-.5747070312-1.8310546875-1.388671875-2.4052734375-2.44140625-.5751953125-1.052734375-.8623046875-2.267578125-.8623046875-3.6440429688,0-1.392578125.283203125-2.615234375.8505859375-3.6684570312.56640625-1.0522460938,1.3603515625-1.8618164062,2.3798828125-2.4291992188,1.0205078125-.56640625,2.1943359375-.8500976562,3.5224609375-.8500976562,1.279296875,0,2.42578125.275390625,3.4375.8256835938,1.0126953125.55078125,1.7978515625,1.3325195312,2.3564453125,2.3442382812.55859375,1.0126953125.837890625,2.1743164062.837890625,3.486328125,0,.4858398438-.0322265625.9228515625-.0966796875,1.3115234375ZM108.8063383543,21.6168563108c-.015625-.8745117188-.33203125-1.5751953125-.947265625-2.1015625-.615234375-.5258789062-1.3681640625-.7895507812-2.2587890625-.7895507812-.8427734375,0-1.55078125.2553710938-2.1259765625.765625-.5751953125.509765625-.9267578125,1.21875-1.056640625,2.1254882812h6.388671875Z"/>
        <path class="cls-1" d="M126.1510649168,17.474766467c.98828125,1.0122070312,1.482421875,2.42578125,1.482421875,4.2392578125v7.8950195312h-3.4013671875v-7.43359375c0-1.0688476562-.2666015625-1.890625-.8017578125-2.4658203125-.5341796875-.5747070312-1.2626953125-.8623046875-2.1865234375-.8623046875-.9384765625,0-1.6796875.2875976562-2.22265625.8623046875-.5419921875.5751953125-.8134765625,1.3969726562-.8134765625,2.4658203125v7.43359375h-3.4013671875v-13.4580078125h3.4013671875v1.6762695312c.453125-.5834960938,1.0322265625-1.0405273438,1.7373046875-1.3725585938.7041015625-.33203125,1.4775390625-.498046875,2.3193359375-.498046875,1.603515625,0,2.8994140625.5063476562,3.88671875,1.5180664062Z"/>
        <path class="cls-1" d="M66.7555571043,46.8385359983h-6.7529296875l-1.1171875,3.2309570312h-3.5712890625l6.09765625-16.98046875h3.958984375l6.09765625,16.98046875h-3.5947265625l-1.1181640625-3.2309570312ZM65.8327055418,44.1178328733l-2.453125-7.09375-2.4541015625,7.09375h4.9072265625Z"/>
        <path class="cls-1" d="M78.8659086668,37.0240828733c.7041015625-.404296875,1.509765625-.6069335938,2.4169921875-.6069335938v3.5708007812h-.8984375c-1.0693359375,0-1.875.2514648438-2.41796875.7529296875-.5419921875.5024414062-.8134765625,1.376953125-.8134765625,2.6240234375v6.7045898438h-3.4013671875v-13.4580078125h3.4013671875v2.0888671875c.4375-.7124023438,1.0078125-1.2709960938,1.712890625-1.6762695312Z"/>
        <path class="cls-1" d="M88.6803617918,37.0240828733c.7041015625-.404296875,1.509765625-.6069335938,2.4169921875-.6069335938v3.5708007812h-.8984375c-1.0693359375,0-1.875.2514648438-2.41796875.7529296875-.5419921875.5024414062-.8134765625,1.376953125-.8134765625,2.6240234375v6.7045898438h-3.4013671875v-13.4580078125h3.4013671875v2.0888671875c.4375-.7124023438,1.0078125-1.2709960938,1.712890625-1.6762695312Z"/>
        <path class="cls-1" d="M95.8590727293,49.425938342c-1.037109375-.5747070312-1.8505859375-1.388671875-2.44140625-2.44140625-.591796875-1.052734375-.88671875-2.267578125-.88671875-3.6440429688s.3037109375-2.5908203125.9111328125-3.6440429688c.607421875-1.052734375,1.4365234375-1.8662109375,2.4892578125-2.44140625,1.052734375-.5747070312,2.2265625-.8623046875,3.5224609375-.8623046875s2.4697265625.2875976562,3.5224609375.8623046875c1.052734375.5751953125,1.8828125,1.388671875,2.490234375,2.44140625.607421875,1.0532226562.9111328125,2.267578125.9111328125,3.6440429688s-.3125,2.5913085938-.935546875,3.6440429688-1.4658203125,1.8666992188-2.5263671875,2.44140625-2.2470703125.8623046875-3.55859375.8623046875c-1.2958984375,0-2.4619140625-.2875976562-3.498046875-.8623046875ZM101.0934477293,46.875157092c.54296875-.2998046875.9755859375-.7490234375,1.2998046875-1.3486328125.32421875-.5986328125.486328125-1.3276367188.486328125-2.1860351562,0-1.279296875-.3369140625-2.2631835938-1.0087890625-2.9516601562-.671875-.6879882812-1.4931640625-1.0322265625-2.46484375-1.0322265625s-1.7861328125.3442382812-2.44140625,1.0322265625c-.65625.6884765625-.984375,1.6723632812-.984375,2.9516601562s.3193359375,2.2631835938.9599609375,2.9516601562c.6396484375.6884765625,1.4453125,1.0322265625,2.4169921875,1.0322265625.615234375,0,1.1943359375-.1494140625,1.736328125-.44921875Z"/>
        <path class="cls-1" d="M127.5358305418,36.611485217l-3.935546875,13.4580078125h-3.66796875l-2.4541015625-9.4013671875-2.453125,9.4013671875h-3.6923828125l-3.9599609375-13.4580078125h3.44921875l2.380859375,10.2514648438,2.5751953125-10.2514648438h3.595703125l2.5263671875,10.2270507812,2.380859375-10.2270507812h3.2548828125Z"/>
      </g>
      <path class="cls-1" d="M44.9924710044,34.4777708646l-5.6630692334-13.7607725844-3.9782651554,3.9583145862,4.8738295805,11.8314552194c.0199262393.0438425924.0398524786.0916752986.0637688317.1395080049.6218495111,1.2915317284.2391635312,2.8541235689-.9088457485,3.719151055l-11.4125528216,8.5823212759c-1.140077712.8570472584-2.6946893247.8052244383-3.7789541028-.1235718794l-18.0256799241-15.4545868087c-.6218495111-.5341399963-.9806191379-1.3114579677-.9806191379-2.1326185315,0-.9925651494.5301742125-1.9213614672,1.3871971409-2.4196390989l7.0476602324-4.1297191719c2.1924215792-1.2835758307,3.5596924809-3.6593480072,3.5716384925-6.1985688717l.0159604554-3.1252080109c.0039657839-.5939430441.2471437589-1.1320731543.6417757504-1.5227393619.3906418776-.3866517638.9287963178-.6298054088,1.5227393619-.6298054088l15.9802398275.0076985673-1.7367779786,1.6477124412c-1.0189449415.9666913547-1.3253143936,2.4670417852-.7669333545,3.7558208913l.8937935362,2.0629325749,8.5065821027-8.5105965465c.4863316201-.4823171763.7613818459-1.1440434959.7613818459-1.8296618386,0-.0008272187-.0001216498-.0016544374-.0001216498-.0024816562,0-.0008272187.0001216498-.0016301075.0001216498-.0024573262,0-.6856183428-.2750502259-1.3473446624-.7613818459-1.8296618386L33.7393767569,0l-.9991431618,2.3411197558c-.5185342313,1.2149917843-.2732979966,2.6213663195.6258570053,3.5891488713l1.9611941439,2.1108812932-15.9502741203-.0119460116h-.0119460116c-4.0260978617,0-7.3186960144,3.2766620273-7.3426123676,7.3067256729l-.0159604554,3.1252080109c-.0036928094.7230869867-.3884944539,1.390613409-1.0123714032,1.7561896381l-6.8159225202,3.9939594754c-2.0289878051,1.1889359137-3.5669690951,3.1392157183-4.0229147183,5.4462644193-.5718942443,2.8937395298.464656966,5.783323768,2.6350675132,7.646461171l18.025704254,15.4545624788c1.5187492481,1.30350207,3.4281403737,1.9612139458,5.3415216133,1.9612139458,1.7340207561,0,3.4720072961-.542120224,4.9229975986-1.630350786l11.4165186055-8.5823456058c3.09331143-2.3279394703,4.1337092857-6.5333978154,2.4953782721-10.0293214646Z"/>
    </g>
  </g>
</svg>