<?xml version="1.0" encoding="UTF-8"?>
<svg id="Calque_2" data-name="Calque 2" xmlns="http://www.w3.org/2000/svg" viewBox="0 0 132.7271534748 158.7049701252">
  <defs>
    <style>
      .cls-1 {
        fill: #fff;
      }
    </style>
  </defs>
  <g id="Calque_1-2" data-name="Calque 1">
    <g>
      <path class="cls-1" d="M130.492623117,99.9966140759l-16.4247204625-39.9106621744-11.5382472667,11.4803842053,14.1356718665,34.3150218782c.0577924967.1271576057.1155849934.2658878236.1849501024.4046180415,1.803563398,3.7458570138.6936510897,8.2778754509-2.6359447056,10.7867331156l-33.1000703208,24.8914894142c-3.3065917002,2.4857124401-7.8154649127,2.3354096099-10.9601811703-.3583981571l-52.2802638807-44.8232676899c-1.8035633979-1.5491776219-2.8441105972-3.8036495105-2.8441105972-6.1852790048,0-2.8787578693,1.5376755744-5.5725656364,4.0233174497-7.0177308772l20.440479263-11.9775125803c6.3587270596-3.722782354,10.3242520127-10.6132850608,10.3588992848-17.9778414828l.0462904491-9.0641074389c.0115020476-1.7226256767.7167963143-3.2833759109,1.8613558946-4.4164334437,1.1329869681-1.1214143558,2.693807767-1.8266380578,4.4164334437-1.8266380578l46.3478303499.022328319-5.0372142081,4.7788955307c-2.9552677428,2.8037155508-3.8438375979,7.1552138991-2.2243531628,10.8930874237l2.5922884533,5.9831673388,24.671821475-24.683464652c1.4105179687-1.3988747917,2.2082520042-3.3180937477,2.2082520042-5.306607248,0-.0023992001-.0003528236-.0047984002-.0003528236-.0071976003,0-.0023992001.0003528236-.0047278355.0003528236-.0071270356,0-1.9885135003-.7977340355-3.9077324563-2.2082520042-5.306607248L97.8550338991,0l-2.8978362188,6.7899995522c-1.5039158887,3.5238665817-.7926520076,7.6028046371,1.8151864188,10.40968501l5.6880931979,6.1222340292-46.2609201702-.0346472721h-.0346472721c-11.6769774846,0-21.2265701216,9.5033727525-21.2959352306,21.1918522847l-.0462904491,9.0641074389c-.0107103339,2.0971846072-1.1267587494,4.0332257249-2.9362023695,5.0935142581l-19.7683654346,11.5837658376c-5.8847165992,3.4482961846-10.3453565319,9.1047342916-11.667745346,15.7959168368-1.6586770724,8.3927744673,1.3476545071,16.7734972534,7.6425425012,22.1771943949l52.2803344454,44.8231971252c4.4048608314,3.7805748507,9.942708631,5.6881506298,15.4921290427,5.6881506298,5.0292173769,0,10.0699368013-1.5723228465,14.2782749181-4.7285411517l33.1115723684-24.8915599789c8.9715971053-6.7517724889,11.9890851926-18.9489530084,7.2373988164-29.0882549187Z"/>
      <path class="cls-1" d="M109.1356252187,96.7436372031l-9.4436617652-22.9472882208-6.6341040506,6.6008347367,8.1275358223,19.7299832787c.0332287415.0731113459.0664574831.1528765545.1063400874.2326417632,1.0369882849,2.1537417785.3988260433,4.7594999301-1.5155795368,6.2020086934l-19.0314270022,14.3117691041c-1.9011789992,1.4292010377-4.4936294253,1.3427819663-6.3017354904-.2060668844l-30.0593931087-25.7718711402c-1.0369882849-.8907250208-1.6352679222-2.18697052-1.6352679222-3.5563273651,0-1.6551889382.8841117304-3.2040377889,2.3132721958-4.0349591894l11.7525879919-6.8866668297c3.6560541621-2.1404746252,5.9360976163-6.1022818964,5.9560186323-10.3366541074l.0266154511-5.2115568756c.0066132904-.9904518178.4121337688-1.8878307014,1.0702170264-2.5393006685.6514293948-.644775532,1.5488488507-1.0502554381,2.5393006685-1.0502554381l26.6484433859.0128380323-2.896228726,2.7477041759c-1.6991795417,1.6120421293-2.2100773184,4.1140073023-1.278928245,6.263158843l1.4904786603,3.4401199558,14.1854674283-14.1921618635c.8110003845-.8043059494,1.2696706204-1.9077922897,1.2696706204-3.051120662,0-.0013794594-.0002028617-.0027589187-.0002028617-.0041383781,0-.0013794594.0002028617-.0027183464.0002028617-.0040978057,0-1.1433283723-.458670236-2.2468147127-1.2696706204-3.051120662l-14.1854674283-14.1921618635-1.6661583473,3.904021338c-.8647010467,2.0261047473-.4557482408,4.3713569204,1.0436711309,5.9852187159l3.2704622506,3.5200786248-26.5984729561-.019921016h-.019921016c-6.7138692592,0-12.2045637928,5.4641196548-12.2444463971,12.1846022044l-.0266154511,5.2115568756c-.0061580817,1.2058106033-.6478483786,2.3189691207-1.6882175934,2.9285993609l-11.3661451494,6.6602756976c-3.3835140923,1.9826543111-5.948232005,5.2349159493-6.7085610901,9.0821208323-.9536835214,4.8255629995.7748560087,9.6441966877,4.3942048555,12.7511407725l30.0594336811,25.7718305678c2.5326468058,2.1737033668,5.7167230063,3.270495272,8.9074530697,3.270495272,2.891630817,0,5.7898749245-.9040327464,8.2095277801-2.7187521018l19.0380402926-14.3118096764c5.1583665457-3.8820420625,6.8933206925-10.895010568,4.1612608651-16.7247680969Z"/>
      <path class="cls-1" d="M101.8814152131,95.9014611648l-5.0835376811-12.3525606116-3.5711484337,3.5532395108,4.3750650579,10.6206804033c.0178870828.0393559502.0357741656.0822936849.0572430329.1252314196.5582123918,1.1593625183.2146886737,2.5620461469-.8158388002,3.3385508371l-10.2446464831,7.7040473635c-1.0234075851.769341121-2.4189276444.7228216017-3.3922339256-.1109261214l-16.1810176327-13.8730379498c-.5582123918-.4794786513-.8802672425-1.1772496011-.8802672425-1.914376501,0-.8909907561.4759187069-1.7247384793,1.2452379878-2.1720247496l6.3264362271-3.707103367c1.9680595895-1.1522207893,3.1954104945-3.2848677486,3.2061340081-5.564236835l.0143271384-2.8053890973c.0035599444-.5331617398.2218522429-1.0162221757.5760994746-1.366909463.3506654471-.3470836625.8337477232-.5653541208,1.366909463-.5653541208l14.3448981405.0069107326-1.5590443864,1.4790933922c-.9146709658.8677647624-1.1896880263,2.2145764706-.6884490452,3.3714680568l.8023269597,1.8518218735,7.6360589768-7.6396626015c.4365627567-.432959132.6834656516-1.0269675295.6834656516-1.6424229542,0-.0007425651-.0001092008-.0014851302-.0001092008-.0022276953,0-.0007425651.0001092008-.00146329.0001092008-.0022058551,0-.6154554247-.2469028948-1.2094638222-.6834656516-1.6424229542l-7.6360589768-7.6396626016-.896895606,2.1015407024c-.465469906,1.0906553078-.2453299804,2.3531081666.5618097781,3.2218524582l1.7604948694,1.8948637483-14.3179989811-.0107235136h-.0107235136c-3.6140861685,0-6.5697354972,2.9413440305-6.5912043645,6.5589901434l-.0143271383,2.8053890973c-.0033149049.6490897059-.3487377806,1.2483046513-.9087701321,1.576469549l-6.1184134494,3.5852366717c-1.8213508499,1.067265871-3.2019424546,2.8179633226-3.6112287728,4.8889196398-.5133693092,2.5976079989.4171061835,5.1914859389,2.3654072453,6.8639587276l16.1810394728,13.8730161097c1.3633276784,1.1701078721,3.0773208039,1.7605126448,4.794895714,1.7605126448,1.5565693249,0,3.1166985942-.4866422205,4.4192014551-1.4635084461l10.2482064276-7.7040692037c2.7767566607-2.0897092246,3.7106851515-5.8648009782,2.2400131363-9.0029684398Z"/>
    </g>
  </g>
</svg>